<?xml version="1.0" standalone="no"?>
<!DOCTYPE svg PUBLIC "-//W3C//DTD SVG 20010904//EN"
 "http://www.w3.org/TR/2001/REC-SVG-20010904/DTD/svg10.dtd">
<svg version="1.0" xmlns="http://www.w3.org/2000/svg"
 width="215.000000pt" height="235.000000pt" viewBox="0 0 215.000000 235.000000"
 preserveAspectRatio="xMidYMid meet">

<g transform="translate(0.000000,235.000000) scale(0.100000,-0.100000)"
fill="#000000" stroke="none">
<path d="M1800 2246 c0 -9 -12 -16 -27 -18 -24 -3 -28 -8 -28 -33 0 -27 4 -30
33 -33 l32 -3 0 50 c0 28 -2 51 -5 51 -3 0 -5 -6 -5 -14z m-2 -49 c4 -20 -25
-34 -40 -19 -15 15 -1 44 19 40 10 -2 19 -11 21 -21z"/>
<path d="M1438 2239 c-2 -6 -2 -26 0 -45 3 -23 9 -34 21 -34 13 0 13 2 2 9 -9
6 -12 19 -8 40 6 28 -7 54 -15 30z"/>
<path d="M1482 2208 c2 -23 8 -43 13 -45 8 -2 11 30 6 80 -1 4 -6 7 -12 7 -6
0 -9 -17 -7 -42z"/>
<path d="M1213 2233 c-22 -8 -14 -33 12 -43 14 -5 25 -12 25 -16 0 -3 -11 -4
-25 -2 -14 3 -25 1 -25 -4 0 -14 53 -5 58 9 2 7 -8 17 -22 23 -33 12 -34 24
-1 18 14 -3 25 -4 25 -2 0 8 -36 21 -47 17z"/>
<path d="M1373 2233 c-21 -8 -15 -22 7 -16 11 3 20 1 20 -5 0 -6 -10 -12 -22
-14 -35 -5 -28 -32 8 -36 28 -3 31 -1 29 25 -1 15 -3 31 -3 34 -3 10 -25 17
-39 12z m27 -53 c0 -5 -9 -10 -21 -10 -11 0 -17 5 -14 10 3 6 13 10 21 10 8 0
14 -4 14 -10z"/>
<path d="M243 2178 c-14 -35 -17 -54 -10 -57 6 -2 13 1 15 8 5 15 45 14 60 -1
21 -21 24 -1 5 51 -24 68 -44 67 -70 -1z m47 -4 c0 -8 -6 -14 -14 -14 -9 0
-12 7 -9 20 6 22 23 18 23 -6z"/>
<path d="M955 2216 c-43 -19 -66 -49 -72 -94 -13 -97 87 -163 177 -117 40 21
60 53 60 98 0 52 -22 91 -64 111 -41 19 -61 20 -101 2z m29 -21 c13 -14 13
-18 -2 -44 -12 -22 -14 -34 -5 -52 10 -24 11 -24 34 15 12 22 25 34 27 27 4
-13 -49 -86 -64 -86 -4 0 -13 20 -19 44 -6 25 -16 46 -23 49 -17 5 -15 19 8
42 24 24 25 24 44 5z"/>
<path d="M1275 2219 c-4 -5 -4 -21 -1 -35 5 -17 13 -24 31 -24 13 0 27 5 30
10 4 7 -2 9 -18 5 -16 -4 -26 -2 -30 8 -9 23 8 40 33 32 15 -5 20 -4 16 4 -9
14 -53 14 -61 0z"/>
<path d="M1524 2216 c-16 -40 30 -76 60 -46 8 9 4 10 -15 5 -16 -4 -30 -2 -33
4 -5 7 4 11 24 11 25 0 31 4 28 18 -4 22 -56 29 -64 8z m46 -6 c0 -5 -9 -10
-21 -10 -11 0 -17 5 -14 10 3 6 13 10 21 10 8 0 14 -4 14 -10z"/>
<path d="M1611 2193 c1 -28 3 -31 6 -13 3 14 10 31 15 38 8 9 6 12 -6 12 -12
0 -16 -9 -15 -37z"/>
<path d="M1664 2216 c-16 -41 31 -76 60 -46 8 9 6 11 -11 5 -13 -3 -28 -3 -35
2 -9 5 -3 9 17 13 38 7 40 34 2 38 -17 2 -29 -2 -33 -12z m46 -6 c0 -5 -9 -10
-20 -10 -11 0 -20 5 -20 10 0 6 9 10 20 10 11 0 20 -4 20 -10z"/>
<path d="M1498 2108 c-6 -17 2 -88 11 -88 7 0 6 89 -2 96 -2 3 -7 -1 -9 -8z"/>
<path d="M1258 2093 c-14 -3 -18 -14 -16 -41 l1 -37 4 33 c2 17 8 32 14 32 5
0 12 0 17 0 4 1 10 -14 14 -32 6 -32 6 -32 5 6 -2 40 -9 47 -39 39z"/>
<path d="M1330 2085 c-18 -21 -4 -65 20 -65 10 0 21 4 24 8 3 5 -4 8 -16 8
-15 -1 -22 6 -23 21 -2 30 24 38 34 11 5 -15 10 -18 15 -9 9 14 -10 41 -29 41
-7 0 -18 -7 -25 -15z"/>
<path d="M1413 2065 c2 -36 5 -40 30 -41 25 -1 27 1 26 40 l-2 41 -6 -35 c-4
-22 -12 -35 -21 -35 -9 0 -18 13 -22 35 l-6 35 1 -40z"/>
<path d="M1549 2091 c-11 -4 -15 -15 -13 -35 4 -40 14 -46 14 -8 0 16 6 32 13
35 6 2 10 7 7 9 -3 3 -12 3 -21 -1z"/>
<path d="M1638 2093 c-13 -3 -18 -15 -18 -39 0 -22 4 -33 11 -29 6 4 8 14 5
22 -7 18 12 45 25 37 5 -3 9 -19 9 -35 0 -18 4 -28 10 -24 21 13 4 79 -19 74
-4 -1 -14 -3 -23 -6z"/>
<path d="M1712 2088 c-25 -25 -6 -68 30 -68 23 0 38 30 27 58 -9 24 -38 29
-57 10z m43 -29 c0 -15 -7 -25 -17 -27 -13 -3 -18 3 -18 21 0 13 3 27 7 31 13
12 28 -1 28 -25z"/>
<path d="M1593 2055 c0 -22 2 -30 4 -17 2 12 2 30 0 40 -3 9 -5 -1 -4 -23z"/>
<path d="M838 1991 c-72 -20 -85 -34 -28 -29 l45 3 -3 -45 c-2 -29 1 -41 7
-35 9 10 44 117 38 120 -1 1 -28 -6 -59 -14z"/>
<path d="M805 1930 c-25 -27 -10 -39 16 -13 12 11 17 23 11 27 -5 3 -17 -3
-27 -14z"/>
<path d="M745 1870 c-25 -27 -12 -37 14 -11 12 12 21 23 21 26 0 11 -18 4 -35
-15z"/>
<path d="M676 1811 c-26 -29 -2 -34 24 -6 18 19 20 25 8 25 -8 0 -23 -9 -32
-19z"/>
<path d="M621 1756 c-15 -16 -35 -26 -53 -26 -17 0 -27 -4 -23 -10 3 -5 17
-10 29 -10 19 0 24 -7 29 -36 4 -22 21 -52 47 -80 29 -31 40 -52 40 -74 0 -22
10 -42 35 -67 20 -20 38 -48 41 -62 11 -51 26 -80 50 -95 31 -21 49 -84 29
-106 -8 -9 -15 -22 -15 -29 0 -7 -6 -11 -15 -8 -8 4 -23 -5 -35 -20 -25 -32
-25 -39 0 -60 11 -10 20 -24 20 -31 0 -10 3 -10 15 2 13 13 20 13 36 3 11 -6
18 -19 16 -27 -5 -23 33 -51 65 -48 26 3 32 -3 64 -61 25 -46 31 -66 23 -72
-8 -4 -4 -9 10 -13 11 -3 30 -8 40 -11 14 -4 21 2 30 26 14 40 14 36 -6 41
-10 3 -31 33 -48 66 -19 39 -36 62 -47 62 -20 0 -35 19 -16 21 7 1 16 1 21 0
4 0 7 10 7 24 0 14 4 25 10 25 5 0 8 -14 6 -30 -3 -26 -1 -28 11 -18 9 7 11
14 5 16 -13 4 -3 34 15 45 18 11 17 52 -2 71 -8 8 -15 19 -15 25 0 15 -17 14
-24 -1 -5 -10 -7 -10 -12 0 -3 6 -12 12 -20 12 -8 0 -14 8 -14 19 0 29 -26 44
-65 38 -20 -3 -35 -2 -35 4 0 5 -18 29 -40 51 -24 25 -40 52 -40 66 0 31 -17
61 -52 94 -19 18 -28 36 -28 57 0 23 -11 43 -39 74 -48 51 -62 108 -36 137 27
29 13 45 -14 16z m353 -572 c19 -19 22 -58 4 -51 -7 2 -12 10 -10 17 2 7 -3
10 -12 7 -15 -6 -30 18 -20 34 8 13 21 11 38 -7z m-72 -108 c14 -20 8 -27 -19
-24 -21 2 -29 9 -31 26 -3 21 -1 23 20 17 13 -4 26 -13 30 -19z"/>
<path d="M200 1720 c0 -5 14 -10 30 -10 17 0 30 5 30 10 0 6 -13 10 -30 10
-16 0 -30 -4 -30 -10z"/>
<path d="M280 1720 c0 -5 16 -10 35 -10 19 0 35 5 35 10 0 6 -16 10 -35 10
-19 0 -35 -4 -35 -10z"/>
<path d="M370 1720 c0 -5 14 -10 30 -10 17 0 30 5 30 10 0 6 -13 10 -30 10
-16 0 -30 -4 -30 -10z"/>
<path d="M460 1720 c0 -5 14 -10 30 -10 17 0 30 5 30 10 0 6 -13 10 -30 10
-16 0 -30 -4 -30 -10z"/>
<path d="M493 1583 c27 -4 35 -17 17 -28 -5 -3 -19 -19 -30 -35 l-21 -30 48 2
c36 1 40 2 16 5 -40 5 -41 12 -8 43 36 34 32 50 -12 49 -31 -2 -33 -3 -10 -6z"/>
<path d="M1090 1491 c0 -28 5 -51 10 -51 6 0 10 20 10 44 0 25 -4 48 -10 51
-6 4 -10 -13 -10 -44z"/>
<path d="M851 1473 c1 -37 2 -37 8 -8 9 43 39 45 44 3 l4 -33 1 38 c2 35 0 37
-28 37 -28 0 -30 -2 -29 -37z"/>
<path d="M932 1478 c3 -29 7 -33 33 -36 29 -3 31 -1 33 33 2 19 -2 35 -8 35
-5 0 -10 -13 -10 -30 0 -20 -5 -30 -15 -30 -10 0 -15 10 -15 30 0 17 -5 30
-11 30 -6 0 -9 -14 -7 -32z"/>
<path d="M1015 1491 c-3 -10 -3 -26 1 -35 7 -18 49 -22 59 -6 4 7 -2 9 -18 5
-16 -4 -26 -2 -30 8 -9 23 8 40 33 32 15 -5 20 -4 16 4 -12 18 -54 13 -61 -8z"/>
<path d="M1131 1496 c-19 -22 -4 -56 24 -56 13 0 26 4 29 9 3 4 -6 6 -19 3
-15 -2 -25 0 -25 7 0 6 12 11 26 11 19 0 25 5 22 18 -4 22 -41 27 -57 8z m49
-6 c0 -5 -9 -10 -20 -10 -11 0 -20 5 -20 10 0 6 9 10 20 10 11 0 20 -4 20 -10z"/>
<path d="M1220 1501 c0 -5 9 -7 20 -4 11 3 20 1 20 -5 0 -6 -10 -12 -22 -14
-13 -2 -24 -11 -26 -20 -3 -15 4 -18 33 -18 33 0 35 2 31 28 -2 15 -5 30 -5
35 -1 10 -51 9 -51 -2z m40 -41 c0 -5 -9 -10 -21 -10 -11 0 -17 5 -14 10 3 6
13 10 21 10 8 0 14 -4 14 -10z"/>
<path d="M1301 1473 c1 -27 3 -31 6 -13 2 14 12 31 21 38 14 11 13 12 -6 12
-19 0 -22 -5 -21 -37z"/>
<path d="M301 1405 c-1 -47 1 -51 24 -53 32 -2 50 29 34 59 -7 13 -17 19 -29
16 -12 -3 -21 1 -23 12 -3 9 -5 -7 -6 -34z m44 -15 c0 -13 -6 -25 -12 -27 -16
-6 -27 21 -19 43 9 23 31 11 31 -16z"/>
<path d="M390 1415 c-24 -29 8 -75 44 -62 21 8 22 63 0 71 -23 9 -30 8 -44 -9z
m45 -26 c0 -15 -7 -25 -18 -27 -22 -4 -33 24 -17 43 18 21 35 13 35 -16z"/>
<path d="M477 1423 c-15 -14 -6 -31 18 -37 15 -4 23 -11 19 -17 -3 -6 -15 -8
-27 -5 -14 3 -17 2 -10 -5 15 -15 47 -7 51 12 2 11 -6 19 -22 23 -15 4 -26 11
-26 17 0 6 9 9 20 6 11 -3 18 -1 14 4 -6 11 -28 12 -37 2z"/>
<path d="M552 1418 c-28 -28 -1 -75 38 -63 14 4 20 15 20 35 0 36 -33 53 -58
28z m43 -29 c0 -28 -29 -38 -39 -13 -7 19 11 47 28 41 6 -2 11 -14 11 -28z"/>
<path d="M630 1386 c0 -42 16 -40 22 3 5 37 28 39 28 2 0 -16 5 -33 11 -36 7
-5 9 6 7 31 -3 37 -5 39 -35 39 -32 1 -33 -1 -33 -39z"/>
<path d="M1223 1350 c0 -30 2 -43 4 -27 2 15 2 39 0 55 -2 15 -4 2 -4 -28z"/>
<path d="M950 1366 c-27 -34 12 -88 43 -57 7 7 4 8 -10 5 -12 -3 -24 -1 -27 5
-5 7 2 11 18 11 32 0 40 14 20 34 -19 20 -28 20 -44 2z m40 -16 c0 -5 -9 -10
-20 -10 -11 0 -20 5 -20 10 0 6 9 10 20 10 11 0 20 -4 20 -10z"/>
<path d="M1035 1367 c-26 -20 -13 -67 19 -67 14 0 27 8 31 18 5 14 4 15 -6 5
-18 -18 -36 -16 -43 3 -8 22 13 49 28 34 16 -16 30 -12 16 5 -15 18 -21 19
-45 2z"/>
<path d="M1110 1366 c-20 -26 -8 -61 22 -64 23 -3 29 2 34 24 5 20 2 31 -11
41 -24 17 -30 16 -45 -1z m44 -40 c-4 -9 -14 -16 -23 -14 -20 4 -27 38 -9 49
18 11 40 -13 32 -35z"/>
<path d="M891 1333 c1 -27 3 -31 6 -13 2 14 12 31 21 38 14 11 13 12 -6 12
-19 0 -22 -5 -21 -37z"/>
<path d="M1188 1352 c-3 -9 -1 -26 3 -37 6 -15 8 -11 8 18 1 40 -4 48 -11 19z"/>
<path d="M1492 1323 c-13 -3 -21 -10 -19 -17 3 -6 -1 -20 -9 -30 -12 -17 -11
-21 4 -32 24 -18 27 -17 40 12 7 14 17 22 22 19 11 -7 12 1 4 33 -4 12 -9 21
-13 21 -3 -1 -16 -4 -29 -6z"/>
<path d="M1326 1241 c-20 -22 -13 -66 9 -57 7 2 21 -2 32 -9 10 -8 14 -15 8
-15 -5 0 -4 -4 4 -9 11 -7 9 -12 -10 -21 -13 -7 -28 -19 -32 -26 -6 -11 -11
-10 -26 4 -10 9 -16 20 -14 25 2 4 0 7 -6 7 -14 0 -41 -29 -41 -44 0 -21 37
-48 62 -45 32 3 58 -10 89 -42 19 -20 32 -26 48 -22 22 6 47 40 37 51 -3 3 -6
0 -6 -6 0 -20 -18 -13 -25 8 -4 11 -11 18 -16 15 -5 -4 -10 6 -10 22 -2 23 -2
24 -6 6 -6 -31 -15 -29 -36 8 l-17 31 24 -4 c14 -3 27 0 30 6 3 7 5 6 5 -2 1
-10 5 -10 22 0 17 11 22 10 30 -4 6 -10 16 -18 23 -18 17 0 51 38 43 47 -4 3
-7 1 -7 -5 0 -7 -5 -12 -11 -12 -5 0 -8 4 -5 9 3 5 -1 14 -9 21 -8 7 -15 18
-15 25 0 8 -8 11 -20 8 -12 -3 -20 -14 -20 -27 0 -20 -1 -20 -19 4 -11 13 -18
27 -16 30 1 3 -3 11 -11 18 -8 7 -14 8 -14 2 0 -18 -25 -11 -39 11 -12 20 -11
21 8 16 12 -3 19 -1 15 4 -9 15 -40 10 -58 -10z"/>
<path d="M1100 1060 c0 -5 16 -10 35 -10 19 0 35 5 35 10 0 6 -16 10 -35 10
-19 0 -35 -4 -35 -10z"/>
<path d="M1800 1050 c0 -5 5 -10 11 -10 29 0 -15 -28 -52 -33 -22 -3 -57 -17
-78 -31 -20 -14 -51 -26 -68 -26 -19 0 -43 -10 -61 -25 -20 -16 -42 -25 -65
-25 -23 0 -46 -9 -65 -25 -17 -14 -40 -25 -53 -25 -13 0 -31 -5 -39 -10 -11
-7 -4 -10 27 -10 29 0 50 7 70 24 15 12 47 26 70 29 25 3 56 16 74 31 19 16
43 26 63 26 19 0 46 10 66 25 19 14 48 25 65 25 17 0 40 7 53 15 20 14 21 14
16 0 -3 -8 -2 -15 2 -15 12 0 44 57 36 64 -9 10 -72 7 -72 -4z"/>
<path d="M1101 1016 c-7 -8 -11 -27 -9 -43 2 -23 8 -29 36 -31 24 -2 32 -8 32
-23 0 -10 5 -19 10 -19 7 0 10 24 8 62 -3 61 -3 62 -34 65 -19 2 -36 -2 -43
-11z m47 -5 c21 -13 11 -56 -13 -56 -20 0 -31 25 -21 51 6 16 15 17 34 5z"/>
<path d="M723 913 c20 -5 23 -19 5 -20 -7 0 -21 -4 -31 -8 -14 -6 -16 -4 -11
11 4 11 3 16 -2 11 -5 -5 -9 -26 -9 -47 0 -34 1 -37 15 -26 19 17 40 10 40
-14 0 -10 7 -25 15 -33 13 -13 11 -16 -16 -26 -25 -9 -30 -8 -26 3 4 10 -4 12
-28 10 -19 -1 -38 -5 -43 -8 -6 -3 -10 4 -11 17 -1 49 -5 56 -35 63 -17 4 -34
11 -37 16 -7 12 -49 -12 -49 -27 1 -17 32 -51 36 -39 4 10 38 9 73 -2 10 -3
11 -8 4 -15 -26 -26 18 -76 56 -64 22 7 68 -16 87 -44 19 -27 59 -27 78 0 20
29 10 50 -22 47 -23 -3 -26 1 -29 29 -2 28 1 34 24 39 18 5 30 2 38 -10 17
-22 31 -20 49 6 23 32 20 38 -15 38 -20 0 -39 8 -50 22 -11 11 -19 16 -19 10
0 -6 -8 -10 -17 -10 -10 0 -27 -3 -38 -7 -19 -8 -19 -8 -2 12 9 11 17 24 17
30 0 15 -34 43 -51 42 -9 -1 -7 -3 4 -6z"/>
<path d="M1412 768 c-6 -6 -12 -24 -12 -39 0 -40 -17 -79 -35 -79 -8 0 -15 -7
-15 -15 0 -8 -4 -15 -10 -15 -15 0 -12 -27 6 -44 18 -18 34 -21 34 -5 0 5 -4
8 -9 4 -5 -3 -12 -1 -16 5 -5 8 21 15 46 12 4 -1 10 10 13 23 4 14 10 25 15
25 4 0 18 9 31 20 19 16 21 22 10 35 -7 8 -19 15 -27 15 -8 0 -12 4 -8 10 3 5
12 7 20 3 8 -3 15 0 15 6 0 6 8 7 18 4 16 -7 16 -5 1 17 -18 28 -58 37 -77 18z"/>
<path d="M1553 723 c-7 -3 -13 -15 -13 -28 0 -19 -7 -25 -34 -30 -39 -8 -50
-32 -30 -60 19 -25 18 -34 -5 -43 -14 -5 -17 -12 -10 -29 5 -13 13 -23 19 -23
6 0 8 5 5 10 -4 6 5 10 20 10 17 0 24 4 19 12 -5 8 -2 9 9 5 12 -5 17 -1 17
13 0 13 -7 20 -19 20 -32 0 -32 14 0 32 27 16 29 16 29 0 1 -16 1 -16 11 1 5
9 7 21 4 27 -7 11 16 50 29 50 4 0 6 -9 3 -20 -3 -11 -1 -18 4 -14 34 20 -19
81 -58 67z"/>
<path d="M874 669 c-17 -5 -42 -22 -57 -39 -17 -18 -37 -30 -52 -30 -14 0 -41
-15 -64 -35 -21 -19 -46 -35 -55 -35 -25 0 -73 -27 -79 -44 -3 -8 -25 -20 -49
-26 -24 -7 -51 -19 -61 -28 -16 -15 -17 -15 -11 1 3 9 2 17 -4 17 -8 0 -32
-50 -32 -66 0 -9 69 -3 75 6 3 6 -2 10 -11 10 -16 0 -16 1 1 20 10 11 29 20
42 20 12 0 40 16 62 35 24 22 49 35 65 35 17 0 39 12 59 31 17 18 47 36 67 41
19 6 49 22 65 38 17 15 45 31 63 35 17 4 32 11 32 16 0 11 -14 10 -56 -2z"/>
<path d="M919 634 c-15 -7 -30 -25 -33 -39 -3 -13 -20 -32 -36 -40 -17 -9 -30
-22 -30 -30 0 -8 -18 -32 -40 -54 -22 -22 -40 -46 -40 -55 0 -9 -11 -18 -25
-22 -13 -3 -27 -16 -31 -27 -7 -22 -7 -22 -15 -2 -6 15 -8 11 -8 -17 -1 -25 4
-38 12 -38 17 0 56 29 40 30 -23 0 -14 30 13 40 14 6 29 23 36 40 5 17 23 37
39 46 17 9 29 23 29 35 0 12 12 27 30 37 17 9 33 26 36 37 3 11 18 30 32 42
32 27 27 36 -9 17z"/>
<path d="M977 602 c-37 -40 -2 -80 37 -43 l21 20 1 -30 c1 -38 7 -43 35 -28
13 7 37 14 54 16 37 4 85 23 85 33 0 18 -31 32 -57 26 -43 -11 -83 -7 -106 9
-29 20 -50 19 -70 -3z"/>
<path d="M1613 584 c-4 -11 -1 -20 6 -22 8 -3 21 -12 30 -21 13 -13 23 -15 39
-8 41 18 24 51 -31 61 -30 6 -39 4 -44 -10z"/>
<path d="M1046 489 c-21 -21 -41 -24 -51 -9 -10 16 -24 11 -41 -15 -13 -20
-14 -28 -4 -40 13 -16 35 -21 25 -6 -11 19 41 16 70 -3 24 -16 27 -17 16 -3
-12 15 -11 17 3 17 9 0 19 7 22 15 8 20 24 19 24 0 0 -9 -7 -18 -15 -21 -14
-6 -13 -8 2 -19 14 -10 23 -9 51 6 18 11 38 17 43 13 15 -9 6 20 -11 33 -10 7
-21 8 -33 2 -14 -8 -20 -5 -30 18 -14 33 -44 39 -71 12z"/>
<path d="M1592 484 c-1 -7 -11 -14 -23 -17 -15 -4 -20 -12 -17 -28 7 -50 51
-28 45 22 -2 19 -5 29 -5 23z m-4 -41 c-5 -25 -28 -28 -28 -4 0 12 6 21 16 21
9 0 14 -7 12 -17z"/>
<path d="M1260 455 c0 -8 5 -15 11 -15 5 0 7 5 3 12 -5 8 -2 9 10 5 10 -4 15
-3 11 3 -10 15 -35 12 -35 -5z"/>
<path d="M1315 449 c-10 -30 25 -53 41 -27 4 7 3 8 -4 4 -7 -4 -16 -5 -22 -1
-11 7 -2 35 12 35 5 0 6 -4 3 -10 -3 -5 1 -10 9 -10 9 0 16 -4 16 -9 0 -14 25
-20 41 -10 11 8 10 9 -6 7 -12 -2 -21 4 -23 16 -3 15 0 18 18 13 18 -4 20 -3
11 6 -9 9 -16 9 -31 -1 -12 -7 -21 -8 -25 -2 -11 17 -33 11 -40 -11z"/>
<path d="M1437 463 c-11 -10 -8 -41 4 -49 16 -9 41 20 33 39 -6 17 -25 22 -37
10z m28 -23 c0 -7 -6 -15 -12 -17 -8 -3 -13 4 -13 17 0 13 5 20 13 18 6 -3 12
-11 12 -18z"/>
<path d="M1491 443 c2 -24 2 -25 6 -5 5 24 18 29 26 10 3 -8 6 -6 6 5 1 11 -6
17 -19 17 -15 0 -20 -6 -19 -27z"/>
<path d="M1615 461 c-4 -7 0 -8 11 -4 11 4 15 2 11 -4 -4 -5 0 -19 8 -29 13
-18 14 -17 11 11 -3 30 -28 46 -41 26z"/>
<path d="M1671 443 c0 -27 1 -27 9 -5 5 12 14 22 19 22 11 0 24 -47 16 -60 -4
-6 -4 -10 -1 -10 3 0 10 9 16 20 8 15 6 24 -7 40 -26 30 -53 26 -52 -7z"/>
<path d="M1290 431 c0 -8 -7 -11 -17 -6 -15 5 -16 4 -5 -6 9 -10 15 -10 24 -1
6 6 9 15 5 19 -4 3 -7 1 -7 -6z"/>
<path d="M1610 431 c0 -6 4 -13 10 -16 6 -3 7 1 4 9 -7 18 -14 21 -14 7z"/>
<path d="M1030 352 c0 -11 -6 -27 -14 -34 -12 -12 -11 -18 3 -36 l16 -22 30
20 c17 11 24 20 16 20 -10 0 -12 8 -7 30 3 17 1 30 -3 30 -5 0 -16 3 -25 6
-11 4 -16 0 -16 -14z"/>
<path d="M1371 341 c2 -23 2 -24 6 -3 5 27 19 29 26 2 3 -13 13 -20 29 -19
l23 1 -25 8 c-24 8 -24 8 -2 9 12 1 22 7 22 15 0 11 -12 15 -40 14 -37 0 -40
-2 -39 -27z m66 13 c-3 -3 -12 -4 -19 -1 -8 3 -5 6 6 6 11 1 17 -2 13 -5z"/>
<path d="M1464 355 c-8 -19 4 -35 24 -34 15 1 15 2 0 6 -10 2 -18 11 -18 18 0
7 8 16 18 18 16 4 16 5 -1 6 -10 0 -20 -6 -23 -14z"/>
<path d="M1520 361 c0 -5 10 -7 22 -3 18 4 20 2 15 -18 -4 -16 -3 -20 5 -12
16 16 2 42 -22 42 -11 0 -20 -4 -20 -9z"/>
<path d="M1582 345 c0 -16 2 -22 5 -12 2 9 2 23 0 30 -3 6 -5 -1 -5 -18z"/>
<path d="M1630 355 c0 -8 6 -15 14 -15 8 0 17 -6 19 -12 4 -10 6 -10 6 0 1 7
-7 16 -16 19 -15 6 -15 7 3 14 17 7 17 8 -3 8 -14 1 -23 -5 -23 -14z"/>
<path d="M1520 330 c0 -5 5 -10 11 -10 5 0 7 5 4 10 -3 6 -8 10 -11 10 -2 0
-4 -4 -4 -10z"/>
<path d="M473 255 c0 -22 2 -30 4 -17 2 12 2 30 0 40 -3 9 -5 -1 -4 -23z"/>
<path d="M493 255 c0 -22 2 -30 4 -17 2 12 2 30 0 40 -3 9 -5 -1 -4 -23z"/>
<path d="M580 255 c0 -19 4 -35 8 -35 4 0 6 16 4 35 -2 19 -6 35 -8 35 -2 0
-4 -16 -4 -35z"/>
<path d="M225 269 c-4 -6 1 -17 11 -25 18 -15 18 -15 1 -10 -11 3 -16 2 -12
-4 8 -14 35 -13 35 1 0 7 -8 18 -17 26 -17 14 -17 14 0 9 11 -3 16 -2 12 4 -8
13 -22 13 -30 -1z"/>
<path d="M283 273 c-18 -7 -16 -42 3 -50 8 -3 20 -1 26 5 8 8 4 9 -12 5 -18
-5 -21 -2 -18 13 2 11 11 18 21 16 9 -2 17 -1 17 1 0 8 -25 14 -37 10z"/>
<path d="M363 273 c-7 -2 -13 -17 -12 -31 l1 -27 7 24 c9 35 29 37 34 4 l5
-28 -2 29 c-1 30 -11 38 -33 29z"/>
<path d="M418 250 c2 -16 6 -30 8 -30 2 0 4 14 4 30 0 17 -4 30 -8 30 -5 0 -7
-13 -4 -30z"/>
<path d="M525 271 c-3 -7 0 -8 9 -5 11 4 16 0 16 -15 0 -12 -5 -21 -11 -21 -5
0 -7 5 -3 11 4 7 2 10 -5 8 -22 -8 -17 -24 7 -27 20 -3 23 0 20 24 -3 29 -22
43 -33 25z"/>
<path d="M642 271 c-20 -12 -10 -46 13 -46 14 0 20 7 20 24 0 27 -13 35 -33
22z m28 -21 c0 -11 -7 -20 -15 -20 -15 0 -21 21 -8 33 12 13 23 7 23 -13z"/>
<path d="M729 248 c4 -28 6 -29 9 -9 2 13 0 27 -5 32 -6 6 -7 -3 -4 -23z"/>
<path d="M332 245 c0 -16 2 -22 5 -12 2 9 2 23 0 30 -3 6 -5 -1 -5 -18z"/>
<path d="M442 250 c0 -14 2 -19 5 -12 2 6 2 18 0 25 -3 6 -5 1 -5 -13z"/>
</g>
</svg>
