<?xml version="1.0" standalone="no"?>
<!DOCTYPE svg PUBLIC "-//W3C//DTD SVG 20010904//EN"
 "http://www.w3.org/TR/2001/REC-SVG-20010904/DTD/svg10.dtd">
<svg version="1.0" xmlns="http://www.w3.org/2000/svg"
 width="1093.000000pt" height="255.000000pt" viewBox="0 0 1093.000000 255.000000"
 preserveAspectRatio="xMidYMid meet">
<metadata>
Created by potrace 1.16, written by Peter Selinger 2001-2019
</metadata>
<g transform="translate(0.000000,255.000000) scale(0.100000,-0.100000)"
fill="#000000" stroke="none">
<path d="M10143 2449 c-18 -18 -16 -64 2 -83 13 -12 39 -15 128 -14 89 1 125
-3 177 -20 120 -39 121 -37 -52 -132 -180 -100 -218 -132 -218 -185 0 -57 43
-95 109 -95 61 0 68 18 10 22 -49 3 -71 27 -50 52 8 9 110 71 227 138 118 67
213 127 211 132 -2 6 -23 18 -48 27 -420 166 -472 182 -496 158z"/>
<path d="M9603 2379 c-17 -18 -16 -50 2 -77 15 -20 23 -21 128 -20 93 2 123
-2 178 -20 117 -40 117 -40 -12 -111 -246 -137 -268 -156 -255 -227 9 -47 48
-74 107 -74 27 0 49 5 49 10 0 6 -18 10 -40 10 -43 0 -65 23 -49 51 5 9 105
72 224 139 118 67 215 128 215 135 0 8 -24 21 -52 31 -29 9 -134 48 -233 87
-191 74 -242 87 -262 66z"/>
<path d="M9059 2296 c-9 -18 -8 -31 3 -52 l13 -29 115 0 c63 -1 126 -4 140 -8
66 -21 140 -53 137 -60 -1 -5 -69 -46 -150 -91 -182 -102 -207 -124 -207 -183
0 -33 6 -50 25 -68 22 -23 23 -25 5 -25 -18 0 -20 -7 -20 -70 l0 -70 175 0
175 0 0 -305 0 -305 95 0 95 0 0 305 0 305 180 0 181 0 -3 68 -3 67 -365 2
c-212 2 -373 7 -385 13 -11 5 -36 11 -55 12 -31 3 -35 6 -35 32 0 27 13 36
215 152 118 67 216 129 218 136 2 9 -48 33 -150 72 -373 141 -381 143 -399
102z"/>
<path d="M8533 2244 c-18 -8 -16 -69 2 -88 12 -12 39 -15 128 -14 98 2 121 -1
186 -25 41 -14 78 -30 82 -34 5 -5 -64 -49 -152 -98 -169 -94 -209 -128 -209
-176 l0 -29 -182 0 c-123 0 -178 4 -168 10 8 6 84 49 168 97 83 48 152 92 152
98 0 6 -24 19 -52 29 -29 10 -132 49 -228 86 -243 95 -280 99 -280 29 0 -51
19 -59 143 -57 89 1 125 -3 177 -20 120 -39 121 -37 -52 -132 -84 -47 -166
-97 -183 -112 -20 -17 -45 -28 -70 -30 l-40 -3 -3 -372 -2 -373 405 0 405 0 0
75 0 76 -142 -7 c-79 -4 -218 -3 -310 1 l-168 7 0 84 0 84 180 0 180 0 0 63 0
64 -97 6 c-54 4 -135 7 -180 7 l-83 0 0 75 0 75 305 0 305 0 0 70 0 70 -55 0
c-30 0 -55 3 -55 8 0 4 96 62 213 128 116 67 213 128 215 136 2 10 -17 22 -60
38 -35 12 -136 51 -225 86 -157 61 -224 80 -250 68z"/>
<path d="M7453 2099 c-17 -18 -16 -50 2 -77 15 -21 22 -22 128 -20 94 2 123
-1 178 -20 117 -40 117 -40 -12 -111 -192 -107 -229 -131 -245 -163 -19 -37
-12 -88 16 -113 25 -22 55 -13 41 13 -5 10 -6 24 0 33 5 9 105 72 224 139 118
67 215 128 215 134 0 7 -62 35 -137 63 -76 29 -181 68 -233 88 -109 43 -159
52 -177 34z"/>
<path d="M6909 2016 c-9 -18 -8 -31 3 -52 l13 -29 120 -1 c103 0 131 -4 194
-27 40 -14 76 -28 79 -32 9 -9 -6 -19 -153 -100 -176 -97 -205 -123 -205 -182
0 -33 6 -50 25 -68 31 -31 52 -33 31 -3 -9 12 -16 30 -16 40 0 25 38 61 57 54
9 -4 49 13 94 39 43 25 81 45 84 45 7 0 6 -149 -1 -176 -5 -21 -13 -22 -194
-29 -103 -4 -227 -4 -274 0 l-86 7 0 62 0 61 124 69 c68 39 122 75 120 81 -5
11 -217 96 -415 167 -107 38 -139 34 -139 -16 0 -58 21 -70 115 -63 89 7 178
-8 260 -43 l49 -21 -49 -29 c-60 -35 -65 -36 -65 -10 0 20 -5 21 -92 18 l-93
-3 -3 -128 c-2 -96 -6 -127 -15 -124 -7 2 -14 21 -17 43 l-5 39 -17 -25 c-21
-28 -23 -88 -5 -111 7 -9 22 -21 35 -28 22 -12 22 -15 22 -211 l0 -200 95 0
95 0 0 155 0 155 281 0 c254 0 281 -2 275 -16 -3 -9 -3 -79 0 -155 l7 -139 87
0 87 0 5 153 c2 83 2 252 0 375 -5 218 -5 222 -26 222 -16 1 -11 7 22 26 23
14 42 31 42 38 0 7 -69 38 -152 70 -372 141 -381 143 -399 102z"/>
<path d="M130 1485 l0 -455 105 0 105 0 0 170 0 170 98 0 98 0 181 -170 182
-171 153 3 153 3 -202 165 -201 165 92 6 c117 7 162 28 194 89 20 40 22 58 22
195 0 137 -2 155 -22 195 -16 30 -36 50 -63 64 -38 20 -59 21 -467 24 l-428 3
0 -456z m756 271 c19 -27 19 -175 0 -202 -14 -18 -30 -19 -280 -22 l-266 -3 0
126 0 126 266 -3 c250 -3 266 -4 280 -22z"/>
<path d="M5843 1889 c-19 -19 -16 -63 5 -82 14 -13 39 -16 127 -15 91 2 122
-2 176 -20 115 -39 115 -40 -6 -106 l-107 -59 51 -28 51 -27 125 71 c69 39
125 77 125 83 0 7 -24 20 -52 29 -29 10 -132 48 -229 86 -189 74 -246 88 -266
68z"/>
<path d="M5302 1818 c-7 -7 -12 -20 -12 -30 0 -11 -7 -18 -20 -18 -60 0 -120
-55 -120 -110 0 -26 -4 -26 -91 11 -118 48 -239 89 -265 89 -35 0 -51 -38 -32
-76 13 -29 14 -29 93 -26 86 4 185 -10 247 -35 42 -17 51 -46 21 -69 -17 -13
-17 -15 0 -25 9 -5 17 -19 17 -29 0 -18 -2 -18 -35 -4 -42 17 -65 17 -87 0
-15 -11 -13 -15 24 -44 39 -30 43 -31 64 -17 13 8 26 15 29 15 3 0 5 -62 5
-137 0 -202 19 -250 105 -272 58 -15 591 -15 648 0 84 21 106 61 107 196 0 69
4 66 -95 82 -33 5 -68 12 -77 16 -16 6 -18 -1 -18 -74 l0 -81 -240 0 -240 0 0
225 0 225 168 0 167 0 -47 -28 -47 -28 50 -27 49 -28 67 40 68 39 3 -50 3 -50
39 5 39 5 -5 -42 c-9 -62 21 -93 99 -102 39 -4 57 -3 57 5 0 6 -17 11 -39 11
-45 0 -71 22 -54 48 5 10 34 32 64 49 l54 33 -45 0 c-30 0 -40 3 -31 9 10 7
13 27 9 83 -10 156 -35 170 -307 176 -172 4 -204 8 -265 28 -78 27 -106 30
-124 12z"/>
<path d="M4170 1801 c0 -17 -13 -19 -182 -23 -278 -8 -286 -14 -295 -234 l-6
-134 -38 0 c-22 0 -39 -4 -39 -10 0 -5 18 -10 40 -10 l40 0 0 -82 c0 -122 15
-206 40 -233 33 -35 94 -45 274 -45 l166 0 0 -30 c0 -16 5 -30 10 -30 6 0 10
14 10 30 l0 30 161 0 c174 0 236 10 268 44 27 29 41 105 41 222 l0 94 40 0
c22 0 40 5 40 10 0 6 -17 10 -39 10 -38 0 -39 0 -39 40 l-1 39 33 -16 c28 -13
37 -13 59 -2 34 18 24 33 -38 56 l-49 18 -12 83 c-6 45 -18 89 -25 99 -31 36
-80 46 -261 51 -165 4 -178 6 -178 23 0 11 -4 19 -10 19 -5 0 -10 -8 -10 -19z
m0 -211 l0 -40 -75 0 -74 0 -3 -67 -3 -68 -67 -3 -68 -3 0 111 0 110 145 0
145 0 0 -40z m50 31 c0 -12 29 -41 41 -41 5 0 7 11 3 25 l-6 25 85 0 c121 0
129 -8 125 -125 l-3 -90 -67 -3 -68 -3 0 71 0 70 -70 0 -70 0 0 40 c0 29 4 40
15 40 8 0 15 -4 15 -9z m-200 -301 l0 -70 75 0 75 0 0 -35 0 -35 -145 0 -145
0 0 104 0 104 70 1 70 0 0 -69z m450 -50 l0 -89 -140 0 -140 0 0 34 0 35 69 0
70 0 3 32 c3 30 9 35 58 55 30 12 61 23 68 23 9 0 12 -24 12 -90z"/>
<path d="M1677 1774 c-4 -4 -7 -173 -7 -376 l0 -368 95 0 95 0 -2 373 -3 372
-85 3 c-47 1 -89 0 -93 -4z"/>
<path d="M2494 1771 c-120 -19 -127 -36 -132 -311 -5 -248 6 -351 39 -386 37
-40 99 -46 419 -42 321 3 333 5 374 61 17 23 22 46 24 116 l4 87 -79 17 c-119
26 -113 29 -113 -58 l0 -75 -220 0 -220 0 0 225 0 225 220 0 220 0 0 -65 c0
-45 4 -65 13 -65 6 0 50 5 95 12 l84 11 -4 76 c-5 94 -21 130 -73 156 -37 18
-63 20 -320 22 -154 1 -303 -2 -331 -6z"/>
<path d="M4850 1394 c-35 -31 -40 -42 -40 -78 0 -24 3 -45 6 -49 3 -3 27 9 52
27 26 18 71 46 99 62 29 16 53 32 53 36 0 7 -29 16 -102 32 -22 5 -35 -1 -68
-30z"/>
</g>
</svg>
