<?xml version="1.0" standalone="no"?>
<!DOCTYPE svg PUBLIC "-//W3C//DTD SVG 20010904//EN"
 "http://www.w3.org/TR/2001/REC-SVG-20010904/DTD/svg10.dtd">
<svg version="1.0" xmlns="http://www.w3.org/2000/svg"
 width="297.000000pt" height="169.000000pt" viewBox="0 0 297.000000 169.000000"
 preserveAspectRatio="xMidYMid meet">

<g transform="translate(0.000000,169.000000) scale(0.100000,-0.100000)"
fill="#000000" stroke="none">
<path d="M1155 1215 c-192 -222 -351 -414 -353 -425 -5 -28 15 -50 45 -50 14
0 21 -4 18 -10 -13 -21 -63 -10 -88 19 l-24 29 -29 -19 -29 -19 38 0 c20 0 37
-3 37 -6 0 -4 -10 -23 -22 -42 l-22 -36 36 22 c19 12 38 22 42 22 3 0 6 -17 6
-37 l0 -38 21 34 20 34 25 -39 25 -39 -3 43 c-4 45 4 51 36 27 32 -24 37 -17
15 20 l-21 35 44 0 43 1 -39 20 -38 21 38 24 39 23 -37 1 -37 0 261 363 c144
199 272 377 286 395 13 17 23 32 21 32 -2 0 -161 -182 -354 -405z"/>
<path d="M423 1498 c-23 -26 -388 -655 -410 -706 -17 -41 -33 -9 219 -444 141
-244 197 -332 215 -339 39 -15 823 -11 853 4 14 7 44 45 67 86 34 59 40 78 32
93 -18 33 -38 31 -97 -10 -317 -221 -711 -179 -969 103 -238 259 -245 663 -18
938 218 264 581 337 894 179 l54 -27 38 45 c22 25 39 48 39 53 0 4 -9 16 -20
27 -19 19 -33 20 -448 20 l-429 0 -20 -22z"/>
<path d="M1609 1472 c-55 -49 -39 -130 29 -147 69 -17 90 -57 52 -95 -24 -24
-67 -26 -99 -4 -20 14 -25 15 -37 2 -13 -12 -12 -17 5 -32 40 -37 155 -15 181
35 6 11 10 37 8 57 -3 35 -7 39 -65 67 -55 25 -63 33 -63 57 0 49 63 74 107
43 18 -13 22 -13 33 0 22 26 -5 45 -66 45 -45 0 -59 -5 -85 -28z"/>
<path d="M1845 1468 c-33 -197 -32 -220 3 -257 55 -60 173 -33 203 47 8 21 39
205 39 232 0 5 -8 10 -19 10 -16 0 -20 -14 -31 -106 -18 -146 -58 -199 -134
-180 -44 11 -51 42 -37 154 7 53 14 105 17 115 4 12 0 17 -15 17 -15 0 -21 -8
-26 -32z"/>
<path d="M2156 1369 c-10 -74 -20 -146 -23 -161 -5 -23 -2 -28 15 -28 17 0 21
9 28 68 l9 67 58 6 c93 10 127 39 127 108 0 46 -30 64 -118 69 l-78 4 -18
-133z m162 79 c17 -17 15 -48 -5 -70 -22 -25 -129 -27 -119 -2 3 9 6 31 6 50
l0 34 53 0 c29 0 58 -5 65 -12z"/>
<path d="M2440 1488 c0 -7 -9 -71 -20 -143 -11 -71 -20 -138 -20 -147 0 -16
12 -18 105 -18 98 0 105 1 105 20 0 18 -7 20 -86 20 l-85 0 7 48 c3 26 8 50
11 55 2 4 38 7 79 7 59 0 74 3 74 15 0 12 -15 15 -76 15 l-76 0 6 31 c3 17 6
40 6 50 0 17 9 19 85 19 78 0 85 2 85 20 0 19 -7 20 -100 20 -73 0 -100 -3
-100 -12z"/>
<path d="M2720 1498 c0 -2 -11 -74 -24 -160 -21 -148 -22 -158 -5 -158 18 0
21 10 34 98 6 38 10 42 34 42 24 0 30 -8 57 -70 24 -57 33 -70 52 -70 12 0 22
2 22 5 0 3 -13 32 -30 65 -16 33 -30 63 -30 68 0 5 15 16 34 25 23 11 38 27
45 50 17 50 1 83 -46 96 -33 9 -142 16 -143 9z m150 -57 c14 -27 -4 -69 -32
-75 -13 -3 -40 -7 -60 -9 -42 -3 -45 5 -32 72 6 30 8 31 60 31 42 0 55 -4 64
-19z"/>
<path d="M1357 1356 c-27 -34 -27 -35 -7 -46 43 -23 77 23 47 64 -12 17 -15
15 -40 -18z"/>
<path d="M732 1091 c-101 -35 -171 -112 -198 -221 -41 -161 26 -319 164 -387
51 -25 67 -28 162 -28 115 0 146 10 207 68 l32 30 -57 43 -56 42 -28 -23 c-82
-69 -195 -51 -258 43 -26 37 -38 123 -26 187 15 78 124 155 199 141 32 -6 37
-3 81 48 l47 55 -38 10 c-59 17 -171 13 -231 -8z"/>
<path d="M2641 1084 c-67 -34 -103 -86 -109 -158 -8 -103 36 -150 192 -202 84
-28 113 -56 102 -98 -8 -32 -68 -60 -114 -52 -19 3 -52 17 -73 30 l-38 26 -46
-53 -46 -52 28 -22 c48 -39 116 -56 207 -51 125 6 190 51 216 148 31 116 -19
188 -162 233 -120 38 -154 79 -104 126 35 33 92 37 141 11 l40 -21 43 45 c23
25 42 50 42 56 0 6 -24 22 -52 35 -77 36 -193 35 -267 -1z"/>
<path d="M1760 780 l0 -320 65 0 65 0 2 248 3 247 83 -247 84 -248 52 0 52 0
84 247 85 246 3 -246 2 -247 70 0 70 0 0 320 0 321 -107 -3 -108 -3 -72 -204
c-40 -112 -74 -206 -76 -207 -2 -2 -36 91 -76 206 l-74 210 -103 0 -104 0 0
-320z"/>
<path d="M1146 1054 l-26 -39 0 -278 0 -279 178 4 c204 4 236 14 322 94 69 64
93 131 88 239 -8 135 -67 219 -188 267 -45 17 -83 22 -201 26 l-147 4 -26 -38z
m325 -117 c77 -41 113 -126 90 -214 -24 -90 -87 -131 -217 -140 l-84 -6 0 192
0 191 83 0 c68 0 92 -4 128 -23z"/>
<path d="M800 915 c0 -32 2 -36 15 -25 11 9 12 17 3 34 -17 33 -18 32 -18 -9z"/>
<path d="M746 871 c18 -31 34 -36 42 -13 2 6 -11 18 -28 27 l-32 17 18 -31z"/>
<path d="M710 810 c45 -24 50 -24 50 0 0 17 -7 20 -42 20 l-43 -1 35 -19z"/>
</g>
</svg>
